<?xml version="1.0" encoding="UTF-8" standalone="no"?>
<!-- Created with Inkscape (http://www.inkscape.org/) -->

<svg
   xmlns:dc="http://purl.org/dc/elements/1.1/"
   xmlns:cc="http://creativecommons.org/ns#"
   xmlns:rdf="http://www.w3.org/1999/02/22-rdf-syntax-ns#"
   xmlns:svg="http://www.w3.org/2000/svg"
   xmlns="http://www.w3.org/2000/svg"
   xmlns:sodipodi="http://sodipodi.sourceforge.net/DTD/sodipodi-0.dtd"
   xmlns:inkscape="http://www.inkscape.org/namespaces/inkscape"
   width="143mm"
   height="143mm"
   viewBox="0 0 506.69292 506.69292"
   id="svg2"
   version="1.1"
   inkscape:version="0.91 r13725"
   sodipodi:docname="circle.svg">
  <defs
     id="defs4" />
  <sodipodi:namedview
     id="base"
     pagecolor="#ffffff"
     bordercolor="#666666"
     borderopacity="1.0"
     inkscape:pageopacity="0.0"
     inkscape:pageshadow="2"
     inkscape:zoom="0.62050879"
     inkscape:cx="136.75646"
     inkscape:cy="332.79142"
     inkscape:document-units="px"
     inkscape:current-layer="layer1"
     showgrid="false"
     inkscape:window-width="1440"
     inkscape:window-height="855"
     inkscape:window-x="241"
     inkscape:window-y="0"
     inkscape:window-maximized="0" />
  <metadata
     id="metadata7">
    <rdf:RDF>
      <cc:Work
         rdf:about="">
        <dc:format>image/svg+xml</dc:format>
        <dc:type
           rdf:resource="http://purl.org/dc/dcmitype/StillImage" />
        <dc:title />
      </cc:Work>
    </rdf:RDF>
  </metadata>
  <g
     inkscape:label="Layer 1"
     inkscape:groupmode="layer"
     id="layer1"
     transform="translate(0,-545.69371)">
    <path
       style="opacity:1;fill:#2b2200;fill-opacity:1;stroke:none;stroke-width:0;stroke-miterlimit:4;stroke-dasharray:none;stroke-opacity:1"
       d="M 255.43555 8.2441406 A 245.76604 245.76604 0 0 0 9.6699219 254.00977 A 245.76604 245.76604 0 0 0 255.43555 499.77539 A 245.76604 245.76604 0 0 0 501.20117 254.00977 A 245.76604 245.76604 0 0 0 255.43555 8.2441406 z M 257.82422 109.71484 A 144.23647 144.23647 0 0 1 402.06055 253.95117 A 144.23647 144.23647 0 0 1 257.82422 398.1875 A 144.23647 144.23647 0 0 1 113.58789 253.95117 A 144.23647 144.23647 0 0 1 257.82422 109.71484 z "
       transform="translate(0,545.69371)"
       id="path4142" />
    <rect
       style="opacity:1;fill:#ffcc00;fill-opacity:1;stroke:none;stroke-width:0;stroke-miterlimit:4;stroke-dasharray:none;stroke-opacity:1"
       id="rect4153"
       width="17.727388"
       height="101.31734"
       x="248.18341"
       y="554.12561" />
  </g>
</svg>
